<svg xmlns="http://www.w3.org/2000/svg" viewBox="0 0 90.145 14.551"><g id="Group_1859" data-name="Group 1859" transform="translate(119.9 253.201)"><g id="_" data-name=" " transform="translate(-35.882 -253.201)" style="isolation: isolate"><g id="Group_1940" data-name="Group 1940" transform="translate(0 0)" style="isolation: isolate"><path id="Path_14" data-name="Path 14" d="M735.8-250.138a3.072,3.072,0,0,1,3.063-3.063,3.067,3.067,0,0,1,3.063,3.063,3.072,3.072,0,0,1-3.063,3.064A3.078,3.078,0,0,1,735.8-250.138Zm5.538,0a2.494,2.494,0,0,0-2.474-2.5,2.494,2.494,0,0,0-2.474,2.5,2.494,2.494,0,0,0,2.474,2.5A2.494,2.494,0,0,0,741.338-250.138Zm-3.833-.047c0-1.021.566-1.555,1.39-1.555.786,0,1.218.385,1.257,1.053h-.6a.567.567,0,0,0-.621-.5h-.063c-.511,0-.746.456-.746,1.006s.236,1.005.746,1.005h.063a.562.562,0,0,0,.621-.5h.6c-.039.668-.471,1.052-1.257,1.052C738.07-248.629,737.5-249.163,737.5-250.185Z" transform="translate(-735.8 253.201)" fill="black"/></g></g><g id="Cosmos" transform="translate(-119.9 -252.788)" style="isolation: isolate"><g id="Group_1941" data-name="Group 1941" transform="translate(0 0)" style="isolation: isolate"><path id="Path_15" data-name="Path 15" d="M-113.322-236.627h.2c1.767,0,3.515-1,3.633-2.749h1.964c-.137,2.788-2.749,4.516-5.695,4.516-4.026,0-6.677-3.044-6.677-7.069s2.651-7.069,6.677-7.069c2.945,0,5.557,1.728,5.695,4.517h-1.964c-.118-1.748-1.866-2.749-3.633-2.749h-.2c-2.847,0-4.615,2.356-4.615,5.3S-116.169-236.627-113.322-236.627Z" transform="translate(119.9 248.998)" fill="black"/><path id="Path_16" data-name="Path 16" d="M30.251-241.929c0,4.418-2.945,7.069-6.677,7.069S16.9-237.51,16.9-241.929,19.844-249,23.575-249,30.251-246.347,30.251-241.929Zm-6.578,5.3c2.553,0,4.615-1.964,4.615-5.3s-2.062-5.3-4.615-5.3h-.2c-2.553,0-4.615,1.964-4.615,5.3s2.062,5.3,4.615,5.3Z" transform="translate(-3.466 248.998)" fill="black"/><path id="Path_17" data-name="Path 17" d="M169.592-247.231h-.2c-1.708,0-2.847.923-2.847,2.14,0,1.06.727,1.689,1.885,1.924l2.2.432c2.376.471,3.751,1.728,3.751,3.967,0,2.415-2.042,3.908-5.086,3.908-3.24,0-5.3-1.571-5.4-4.615h1.964c0,1.865,1.453,2.847,3.515,2.847h.2c1.846,0,2.847-.923,2.847-2.062,0-1.119-.707-1.767-2.16-2.062l-2.2-.452c-2.2-.452-3.476-1.689-3.476-3.868,0-2.16,1.944-3.927,4.909-3.927,3.044,0,4.988,1.669,5.086,4.32h-1.964A2.771,2.771,0,0,0,169.592-247.231Z" transform="translate(-136.032 248.998)" fill="black"/><path id="Path_18" data-name="Path 18" d="M297.86-245.27v12.018H295.9V-247h3.26l4.1,11.9,4.026-11.9h3.24v13.746h-1.964v-12.077l-4.045,12.077H302Z" transform="translate(-255.07 247.194)" fill="black"/><path id="Path_19" data-name="Path 19" d="M480.046-241.929c0,4.418-2.946,7.069-6.677,7.069s-6.677-2.651-6.677-7.069S469.639-249,473.37-249,480.046-246.347,480.046-241.929Zm-6.578,5.3c2.553,0,4.615-1.964,4.615-5.3s-2.062-5.3-4.615-5.3h-.2c-2.553,0-4.615,1.964-4.615,5.3s2.062,5.3,4.615,5.3Z" transform="translate(-409.097 248.998)" fill="black"/><path id="Path_20" data-name="Path 20" d="M619.388-247.231h-.2c-1.708,0-2.847.923-2.847,2.14,0,1.06.727,1.689,1.885,1.924l2.2.432c2.376.471,3.751,1.728,3.751,3.967,0,2.415-2.042,3.908-5.086,3.908-3.24,0-5.3-1.571-5.4-4.615h1.964c0,1.865,1.453,2.847,3.515,2.847h.2c1.846,0,2.847-.923,2.847-2.062,0-1.119-.707-1.767-2.16-2.062l-2.2-.452c-2.2-.452-3.476-1.689-3.476-3.868,0-2.16,1.944-3.927,4.909-3.927,3.044,0,4.988,1.669,5.086,4.32h-1.964A2.771,2.771,0,0,0,619.388-247.231Z" transform="translate(-541.664 248.998)" fill="black"/></g></g></g></svg>