<svg width="1348" height="73" viewBox="0 0 1348 73" fill="none" xmlns="http://www.w3.org/2000/svg">
<path fill-rule="evenodd" clip-rule="evenodd" d="M989.795 56.6978C989.94 55.411 990.116 53.8535 990.116 52.0252C990.197 50.2006 990.23 47.9885 990.197 45.4696H968.875C968.984 47.4549 968.652 49.4398 967.902 51.2825C967.194 52.6427 965.996 53.6864 964.549 54.205C963.784 54.5531 962.986 54.8236 962.167 55.0124C961.029 55.2319 959.874 55.3562 958.716 55.3838C957.193 55.5452 955.2 55.5452 952.705 55.5452H942.805C938.651 55.5883 934.498 55.4213 930.361 55.0447C927.914 54.9328 925.549 54.1322 923.54 52.7357C921.929 51.3251 920.901 49.3687 920.656 47.2457C920.205 43.8689 920.004 40.4634 920.056 37.0571C920.056 35.4747 920.091 34.0391 920.122 32.7503V32.749V32.7478V32.7468V32.7459C920.147 31.6956 920.17 30.743 920.17 29.8879C920.218 28.2959 920.38 26.7094 920.656 25.1407C920.845 24.096 921.172 23.0807 921.628 22.1212C922.044 21.3627 922.593 20.6846 923.248 20.119C923.943 19.5257 924.731 19.0511 925.582 18.7142C926.838 18.2726 928.144 17.9852 929.47 17.8584C931.171 17.6485 933.424 17.5032 936.243 17.4225C939.051 17.3579 942.691 17.3256 947.163 17.3256C951.943 17.3256 955.67 17.3902 958.424 17.5355C960.558 17.5673 962.674 17.9323 964.694 18.6173C965.319 18.8141 965.891 19.1485 966.367 19.5958C966.844 20.0431 967.214 20.5917 967.449 21.2008C967.913 22.7055 968.185 24.2625 968.259 25.835H989.322V23.3968C989.487 19.0301 988.788 14.6739 987.265 10.5762C986.066 7.50678 983.752 4.99928 980.784 3.55231C979.219 2.81783 977.593 2.22344 975.923 1.77616C973.682 1.22381 971.401 0.845907 969.101 0.645875C966.298 0.355231 962.718 0.113028 958.392 0.113028C954.06 0.037676 948.54 0 941.833 0C936.696 0 932.419 0.0645875 928.871 0.209909C925.317 0.360613 922.282 0.613581 919.765 0.968812C917.566 1.26183 915.397 1.74813 913.284 2.42203C911.495 3.01551 909.773 3.79485 908.148 4.74718C906.371 5.74252 904.781 7.03731 903.449 8.57399C902.063 10.2563 901.032 12.2006 900.419 14.29C899.556 17.0394 899.013 19.8782 898.799 22.7509C898.507 26.0557 898.361 30.0816 898.361 34.8288C898.361 40.1573 898.507 44.6784 898.799 48.4245C898.995 51.6055 899.483 54.762 900.257 57.8542C900.795 60.095 901.751 62.2149 903.076 64.1031C904.295 65.7617 905.818 67.1753 907.564 68.269C909.059 69.2173 910.657 69.9921 912.328 70.578C914.381 71.2682 916.498 71.755 918.647 72.0312C921.661 72.4417 924.695 72.695 927.737 72.7901C931.317 73 935.692 73 940.892 73H940.893C948.098 73.0215 953.92 72.9893 958.359 72.9031C962.799 72.817 966.136 72.6717 968.372 72.4672C972.881 72.3696 977.327 71.3989 981.464 69.6092C984.484 68.1547 986.897 65.6925 988.285 62.6499C988.659 61.8135 988.968 60.9498 989.209 60.0664C989.489 58.9687 989.684 57.8513 989.792 56.724L989.795 56.6978ZM21.9706 0.523438V72.4577H0V0.523438H21.9706ZM72.7937 0.523438L116.54 55.1967L115.973 0.523438H136.745V72.4577H101.472L58.3249 18.3173L58.8758 72.4577H37.8125V0.523438H72.7937ZM229.523 16.8156V0.523438H152.918V72.4577H174.775V47.4462H226.72V31.154H174.775V16.8156H229.523ZM264.245 0.523438V72.4577H242.291V0.523438H264.245ZM358.825 55.1967L315.079 0.523438H280.162V72.4577H301.225L300.691 18.3173L343.757 72.4577H379.03V0.523438H358.258L358.825 55.1967ZM417.115 0.523438V72.4577H395.16V0.523438H417.115ZM428.59 0.523438V18.3173H460.719V72.4577H482.69V18.285H514.836V0.523438H428.59ZM606.391 16.8156H548.062V29.2164H603.037V43.4418H548.062V56.1817H607.153V72.4577H526.432V0.523438H606.391V16.8156ZM711.665 48.302L685.368 0.523438H650.436V72.4577H671.645L670.997 16.9287L702.494 72.4577H720.025L752.058 16.9287L750.972 72.4577H772.392V0.523438H737.767L711.665 48.302ZM853.255 0.523438L892.757 72.4577H868.729L861.599 59.5402H815.066L808.131 72.4577H783.244L823.75 0.523438H853.255ZM838.333 15.9437L822.956 44.6367H853.871L838.333 15.9437ZM1026.34 0.523438V27.1658H1076.34V0.523438H1098.31V72.4577H1076.34V45.0081H1026.34V72.4577H1004.37V0.523438H1026.34ZM1136.33 72.4577V0.523438H1114.36V72.4577H1136.33ZM1187.16 0.523438L1230.91 55.1967L1230.34 0.523438H1251.11V72.4577H1215.84L1172.77 18.3173L1173.31 72.4577H1152.24V0.523438H1187.16ZM1288.92 16.8156H1347.25V0.523438H1267.28V72.4577H1348.05V56.1817H1288.92V43.4418H1343.9V29.2164H1288.92V16.8156Z" fill="black"/>
</svg>
