<svg viewBox="0 0 649 84" xmlns="http://www.w3.org/2000/svg">
  <path d="M552.134 0V19.2318H626.398C628.296 19.2318 629.627 20.5532 629.627 22.4375V64.1058H649V22.4375C649 10.1593 638.766 0 626.398 0H552.134ZM629.627 64.1058H555.363C553.465 64.1058 552.134 62.7845 552.134 60.9002V19.2318H532.761V60.9002C532.761 73.1773 542.995 83.3376 555.363 83.3376H629.627V64.1058Z" fill="black" />
  <path d="M422.98 0.00203464V19.2339H497.243C499.141 19.2339 500.472 20.5552 500.472 22.4395V35.2611C500.472 37.1455 499.141 38.4668 497.243 38.4668H422.98V19.2339L403.607 19.2349V83.3407H422.98V57.6986H483.184L496.098 83.3407H517.761L504.228 56.4723C513.218 53.5002 519.846 45.1115 519.846 35.2621V22.4406C519.846 10.1614 509.612 0.00203464 497.243 0.00203464H422.98Z" fill="black" />
  <path d="M297.054 0C284.687 0 274.453 10.1593 274.453 22.4375V64.1058H293.784V83.3315H390.691V64.0996L293.826 64.1027V22.4375C293.826 20.5532 295.157 19.2318 297.054 19.2318H390.691V0H297.054Z" fill="black" />
  <path d="M164.672 0.00203464V19.2339H238.935C240.834 19.2339 242.165 20.5552 242.165 22.4395V38.4657H164.672V19.2339H145.298V83.3397H164.672V57.6976H242.165V83.3397H261.537V22.4385C261.537 10.1614 251.303 0.00203464 238.935 0.00203464H164.672Z" fill="black" />
  <path d="M19.3733 0V19.2318H31.5294C32.5222 19.2318 33.4911 19.5428 34.2945 20.1224C35.0989 20.7019 35.6984 21.5181 36.0064 22.4561L56.0041 83.3376H76.3795L96.4375 22.2805C96.7279 21.3941 97.293 20.6224 98.0527 20.0748C98.8124 19.5273 99.7271 19.2318 100.666 19.2318H113.01V83.3376H132.384V0H86.6083C85.6696 0 84.7559 0.295461 83.9962 0.842994C83.2365 1.39053 82.6714 2.16224 82.3801 3.04862L66.1923 52.3235L50.0035 3.04862C49.7132 2.16224 49.147 1.39053 48.3874 0.842994C47.6287 0.295461 46.7139 0 45.7753 0H19.3733ZM19.3733 19.2318H0V83.3376H19.3733V19.2318Z" fill="black" />
</svg>
