<svg xmlns="http://www.w3.org/2000/svg" viewBox="0 0 48 48" width="48" height="48">
  <path d="M24 6L24 20" stroke="#000000" stroke-width="3" stroke-linecap="round"/>
  <path d="M24 20L24 38C24 38 14 36 10 30C6 24 10 20 10 20L24 20Z" fill="#000000"/>
  <path d="M24 20L24 34C24 34 32 32 35 27C38 22 35 20 35 20L24 20Z" fill="#000000"/>
  <path d="M8 40L40 40" stroke="#000000" stroke-width="2.5" stroke-linecap="round"/>
  <path d="M12 40C12 40 10 44 16 44" stroke="#000000" stroke-width="2" stroke-linecap="round" fill="none"/>
  <path d="M36 40C36 40 38 44 32 44" stroke="#000000" stroke-width="2" stroke-linecap="round" fill="none"/>
</svg>